<svg version="1.2" baseProfile="tiny-ps" xmlns="http://www.w3.org/2000/svg" viewBox="0 0 372 416" width="372" height="416">
	<title>Layer 1</title>
	<defs>
		<radialGradient id="grd1" gradientUnits="userSpaceOnUse"  cx="205.4" cy="139.6" r="181.6">
			<stop offset="0" stop-color="#ffffff"  />
			<stop offset=".7" stop-color="#212121"  />
			<stop offset="1" stop-color="#919c99"  />
		</radialGradient>
		<linearGradient id="grd2" gradientUnits="userSpaceOnUse"  x1="303.2" y1="23.1" x2="317.9" y2="205.8">
			<stop offset="0" stop-color="#ffffff"  />
			<stop offset="1" stop-color="#212121"  />
		</linearGradient>
		<radialGradient id="grd3" gradientUnits="userSpaceOnUse"  cx="265" cy="281.2" r="123.7">
			<stop offset="0" stop-color="#ffffff"  />
			<stop offset=".6" stop-color="#ff422e"  />
			<stop offset="1" stop-color="#8b1b1a"  />
		</radialGradient>
		<radialGradient id="grd4" gradientUnits="userSpaceOnUse"  cx="149.3" cy="154.4" r="75.1">
			<stop offset="0" stop-color="#ffffff"  />
			<stop offset=".6" stop-color="#ff422e"  />
			<stop offset="1" stop-color="#8b1b1a"  />
		</radialGradient>
		<radialGradient id="grd5" gradientUnits="userSpaceOnUse"  cx="108.4" cy="86" r="89.8">
			<stop offset="0" stop-color="#ffffff"  />
			<stop offset=".6" stop-color="#ff422e"  />
			<stop offset="1" stop-color="#8b1b1a"  />
		</radialGradient>
		<radialGradient id="grd6" gradientUnits="userSpaceOnUse"  cx="154.2" cy="184.5" r="87.3">
			<stop offset="0" stop-color="#ffffff"  />
			<stop offset=".6" stop-color="#ff5624"  />
			<stop offset="1" stop-color="#cf2824"  />
		</radialGradient>
		<radialGradient id="grd7" gradientUnits="userSpaceOnUse"  cx="220.1" cy="212.7" r="82.7">
			<stop offset="0" stop-color="#ffffff"  />
			<stop offset=".6" stop-color="#ff422e"  />
			<stop offset="1" stop-color="#8b1b1a"  />
		</radialGradient>
		<radialGradient id="grd8" gradientUnits="userSpaceOnUse"  cx="216.3" cy="174.9" r="95.1">
			<stop offset="0" stop-color="#ffffff"  />
			<stop offset=".6" stop-color="#ff5624"  />
			<stop offset="1" stop-color="#cf2824"  />
		</radialGradient>
		<linearGradient id="grd9" gradientUnits="userSpaceOnUse"  x1="398.3" y1="366.3" x2="81.3" y2="355.9">
			<stop offset="0" stop-color="#ffffff"  />
			<stop offset=".3" stop-color="#ff8f29"  />
			<stop offset="1" stop-color="#ff422e"  />
		</linearGradient>
		<linearGradient id="grd10" gradientUnits="userSpaceOnUse"  x1="6.7" y1="2" x2="277.8" y2="8.2">
			<stop offset="0" stop-color="#ffffff"  />
			<stop offset=".5" stop-color="#ff8f29"  />
			<stop offset="1" stop-color="#ff422e"  />
		</linearGradient>
	</defs>
	<style>
		tspan { white-space:pre }
		.s0 { opacity: 0;mix-blend-mode: multiply;fill: #929497 } 
		.s1 { opacity: 0;mix-blend-mode: multiply;fill: #909295 } 
		.s2 { opacity: 0;mix-blend-mode: multiply;fill: #8e8f92 } 
		.s3 { opacity: .1;mix-blend-mode: multiply;fill: #8b8d90 } 
		.s4 { opacity: .1;mix-blend-mode: multiply;fill: #898b8e } 
		.s5 { opacity: .1;mix-blend-mode: multiply;fill: #87898b } 
		.s6 { opacity: .1;mix-blend-mode: multiply;fill: #858689 } 
		.s7 { opacity: .1;mix-blend-mode: multiply;fill: #838487 } 
		.s8 { opacity: .2;mix-blend-mode: multiply;fill: #818284 } 
		.s9 { opacity: .2;mix-blend-mode: multiply;fill: #7e7f82 } 
		.s10 { opacity: .2;mix-blend-mode: multiply;fill: #7c7d80 } 
		.s11 { opacity: .2;mix-blend-mode: multiply;fill: #7a7b7d } 
		.s12 { opacity: .2;mix-blend-mode: multiply;fill: #78787b } 
		.s13 { opacity: .3;mix-blend-mode: multiply;fill: #767679 } 
		.s14 { opacity: .3;mix-blend-mode: multiply;fill: #747476 } 
		.s15 { opacity: .3;mix-blend-mode: multiply;fill: #717274 } 
		.s16 { opacity: .3;mix-blend-mode: multiply;fill: #6f6f72 } 
		.s17 { opacity: .3;mix-blend-mode: multiply;fill: #6d6d6f } 
		.s18 { opacity: .4;mix-blend-mode: multiply;fill: #6b6b6d } 
		.s19 { opacity: .4;mix-blend-mode: multiply;fill: #69686b } 
		.s20 { opacity: .4;mix-blend-mode: multiply;fill: #666668 } 
		.s21 { opacity: .4;mix-blend-mode: multiply;fill: #646466 } 
		.s22 { opacity: .4;mix-blend-mode: multiply;fill: #626264 } 
		.s23 { opacity: .5;mix-blend-mode: multiply;fill: #605f61 } 
		.s24 { opacity: .5;mix-blend-mode: multiply;fill: #5e5d5f } 
		.s25 { opacity: .5;mix-blend-mode: multiply;fill: #5c5b5d } 
		.s26 { opacity: .5;mix-blend-mode: multiply;fill: #59585a } 
		.s27 { opacity: .5;mix-blend-mode: multiply;fill: #575658 } 
		.s28 { opacity: .5;mix-blend-mode: multiply;fill: #555456 } 
		.s29 { opacity: .6;mix-blend-mode: multiply;fill: #535153 } 
		.s30 { opacity: .6;mix-blend-mode: multiply;fill: #514f51 } 
		.s31 { opacity: .6;mix-blend-mode: multiply;fill: #4f4d4f } 
		.s32 { opacity: .6;mix-blend-mode: multiply;fill: #4c4b4c } 
		.s33 { opacity: .6;mix-blend-mode: multiply;fill: #4a484a } 
		.s34 { opacity: .7;mix-blend-mode: multiply;fill: #484648 } 
		.s35 { opacity: .7;mix-blend-mode: multiply;fill: #464445 } 
		.s36 { opacity: .7;mix-blend-mode: multiply;fill: #444143 } 
		.s37 { opacity: .7;mix-blend-mode: multiply;fill: #413f41 } 
		.s38 { opacity: .7;mix-blend-mode: multiply;fill: #3f3d3e } 
		.s39 { opacity: .8;mix-blend-mode: multiply;fill: #3d3b3c } 
		.s40 { opacity: .8;mix-blend-mode: multiply;fill: #3b383a } 
		.s41 { opacity: .8;mix-blend-mode: multiply;fill: #393637 } 
		.s42 { opacity: .8;mix-blend-mode: multiply;fill: #373435 } 
		.s43 { opacity: .8;mix-blend-mode: multiply;fill: #343133 } 
		.s44 { opacity: .9;mix-blend-mode: multiply;fill: #322f30 } 
		.s45 { opacity: .9;mix-blend-mode: multiply;fill: #302d2e } 
		.s46 { opacity: .9;mix-blend-mode: multiply;fill: #2e2a2c } 
		.s47 { opacity: .9;mix-blend-mode: multiply;fill: #2c2829 } 
		.s48 { opacity: .9;mix-blend-mode: multiply;fill: #2a2627 } 
		.s49 { opacity: 1;mix-blend-mode: multiply;fill: #272425 } 
		.s50 { opacity: 1;mix-blend-mode: multiply;fill: #252122 } 
		.s51 { mix-blend-mode: multiply;fill: #231f20 } 
		.s52 { fill: url(#grd1) } 
		.s53 { fill: url(#grd2) } 
		.s54 { fill: url(#grd3) } 
		.s55 { fill: url(#grd4) } 
		.s56 { fill: url(#grd5) } 
		.s57 { fill: url(#grd6) } 
		.s58 { fill: url(#grd7) } 
		.s59 { fill: url(#grd8) } 
		.s60 { fill: url(#grd9) } 
		.s61 { fill: url(#grd10) } 
	</style>
	<g id="Layer 1">
		<g id="&lt;Group&gt;">
			<g id="&lt;Group&gt;">
				<g id="&lt;Group&gt;" style="opacity: .5">
					<path id="&lt;Path&gt;" class="s0" d="m374.05 398.69c-0.11 6.47-23.7 11.08-59.01 13.94c-35.31 2.85-82.35 3.93-129.37 3.32c-94.02-1.23-187.94-9.22-187.72-23.39c0.11-6.76 23.7-11.44 59.01-14.25c35.32-2.81 82.36-3.73 129.37-2.97c94.03 1.53 187.94 9.82 187.71 23.35z" />
					<path id="&lt;Path&gt;" class="s1" d="m186.33 375.6c51.43 0.84 102.74 3.73 138.24 8.4c28.59 3.77 46.93 8.69 46.82 14.64c-0.11 6.38-23.34 10.94-58.17 13.75c-34.79 2.81-81.15 3.88-127.55 3.28c-51.54-0.67-102.97-3.41-138.48-8.1c-28.46-3.76-46.69-8.77-46.59-14.98c0.1-6.66 23.34-11.29 58.18-14.06c34.79-2.77 81.15-3.68 127.55-2.93z" />
					<path id="&lt;Path&gt;" class="s2" d="m186.33 375.87c50.75 0.83 101.3 3.68 136.27 8.29c28.2 3.72 46.25 8.58 46.15 14.44c-0.1 6.29-22.98 10.79-57.34 13.58c-34.27 2.77-79.94 3.83-125.73 3.23c-50.87-0.66-101.53-3.37-136.5-7.99c-28.07-3.71-46.02-8.66-45.93-14.78c0.1-6.56 22.98-11.14 57.34-13.88c34.27-2.73 79.95-3.64 125.73-2.89z" />
					<path id="&lt;Path&gt;" class="s3" d="m186.32 376.13c50.08 0.81 99.86 3.63 134.29 8.17c27.8 3.67 45.58 8.47 45.48 14.25c-0.1 6.2-22.62 10.65-56.5 13.4c-33.75 2.74-78.74 3.78-123.91 3.19c-50.19-0.66-100.08-3.33-134.52-7.89c-27.67-3.67-45.35-8.55-45.26-14.57c0.1-6.47 22.63-10.98 56.51-13.69c33.75-2.69 78.74-3.59 123.91-2.86z" />
					<path id="&lt;Path&gt;" class="s4" d="m186.32 376.4c49.4 0.8 98.42 3.58 132.32 8.06c27.41 3.62 44.9 8.36 44.8 14.05c-0.1 6.1-22.26 10.5-55.66 13.21c-33.23 2.7-77.54 3.73-122.09 3.15c-49.51-0.65-98.64-3.29-132.55-7.78c-27.28-3.62-44.68-8.44-44.59-14.37c0.1-6.37 22.27-10.83 55.67-13.5c33.23-2.66 77.54-3.54 122.1-2.82z" />
					<path id="&lt;Path&gt;" class="s5" d="m186.31 376.67c48.72 0.79 96.98 3.53 130.35 7.95c27.01 3.58 44.23 8.25 44.13 13.85c-0.1 6.01-21.91 10.36-54.83 13.04c-32.71 2.66-76.33 3.68-120.27 3.1c-48.83-0.64-97.2-3.24-130.57-7.67c-26.89-3.57-44.01-8.32-43.92-14.17c0.1-6.28 21.91-10.68 54.84-13.32c32.71-2.62 76.34-3.5 120.28-2.78z" />
					<path id="&lt;Path&gt;" class="s6" d="m186.31 376.93c48.05 0.78 95.54 3.49 128.37 7.83c26.61 3.53 43.55 8.14 43.46 13.66c-0.1 5.92-21.55 10.21-53.99 12.86c-32.19 2.62-75.13 3.63-118.45 3.06c-48.15-0.63-95.76-3.2-128.6-7.56c-26.49-3.52-43.34-8.21-43.25-13.96c0.1-6.18 21.55-10.53 54-13.13c32.19-2.58 75.13-3.45 118.46-2.75z" />
					<path id="&lt;Path&gt;" class="s7" d="m186.31 377.2c47.37 0.77 94.11 3.44 126.4 7.72c26.22 3.48 42.88 8.03 42.79 13.46c-0.09 5.83-21.19 10.06-53.15 12.68c-31.66 2.58-73.92 3.58-116.63 3.01c-47.47-0.63-94.31-3.16-126.62-7.46c-26.1-3.48-42.67-8.1-42.58-13.76c0.1-6.09 21.2-10.37 53.16-12.95c31.67-2.54 73.93-3.4 116.64-2.71z" />
					<path id="&lt;Path&gt;" class="s8" d="m186.3 377.47c46.69 0.76 92.67 3.39 124.43 7.61c25.82 3.44 42.2 7.92 42.11 13.27c-0.09 5.74-20.84 9.92-52.32 12.5c-31.14 2.54-72.72 3.53-114.81 2.97c-46.8-0.62-92.87-3.12-124.64-7.35c-25.71-3.43-42-7.99-41.92-13.56c0.09-5.99 20.84-10.22 52.33-12.76c31.14-2.5 72.72-3.36 114.82-2.67z" />
					<path id="&lt;Path&gt;" class="s9" d="m186.3 377.73c46.01 0.75 91.23 3.34 122.45 7.49c25.43 3.39 41.53 7.81 41.44 13.07c-0.09 5.65-20.48 9.77-51.48 12.32c-30.62 2.5-71.51 3.48-113 2.93c-46.12-0.61-91.43-3.08-122.67-7.24c-25.31-3.38-41.33-7.87-41.25-13.36c0.09-5.89 20.48-10.07 51.49-12.57c30.62-2.47 71.52-3.31 113-2.63z" />
					<path id="&lt;Path&gt;" class="s10" d="m186.29 378c45.34 0.74 89.79 3.29 120.48 7.38c25.03 3.34 40.85 7.7 40.77 12.87c-0.09 5.56-20.12 9.63-50.65 12.14c-30.1 2.47-70.31 3.43-111.18 2.88c-45.44-0.6-89.99-3.04-120.69-7.13c-24.92-3.33-40.66-7.76-40.58-13.15c0.09-5.8 20.13-9.91 50.66-12.39c30.1-2.43 70.31-3.26 111.18-2.6z" />
					<path id="&lt;Path&gt;" class="s11" d="m186.29 378.27c44.66 0.72 88.35 3.25 118.51 7.27c24.63 3.29 40.18 7.58 40.09 12.68c-0.09 5.47-19.76 9.48-49.81 11.96c-29.58 2.43-69.1 3.38-109.36 2.84c-44.76-0.6-88.54-3-118.71-7.03c-24.53-3.29-39.99-7.65-39.91-12.95c0.09-5.7 19.77-9.76 49.82-12.2c29.58-2.39 69.11-3.22 109.37-2.56z" />
					<path id="&lt;Path&gt;" class="s12" d="m186.29 378.53c43.98 0.71 86.91 3.2 116.53 7.15c24.24 3.25 39.5 7.47 39.42 12.48c-0.08 5.38-19.4 9.33-48.97 11.77c-29.06 2.39-67.9 3.33-107.54 2.8c-44.08-0.59-87.1-2.95-116.74-6.92c-24.13-3.24-39.32-7.54-39.24-12.75c0.09-5.61 19.41-9.61 48.99-12.01c29.06-2.35 67.9-3.17 107.55-2.52z" />
					<path id="&lt;Path&gt;" class="s13" d="m186.28 378.8c43.31 0.7 85.47 3.15 114.56 7.04c23.84 3.2 38.83 7.36 38.75 12.28c-0.08 5.29-19.05 9.19-48.14 11.59c-28.54 2.35-66.69 3.28-105.72 2.75c-43.4-0.58-85.66-2.91-114.76-6.81c-23.74-3.19-38.65-7.42-38.57-12.54c0.09-5.51 19.06-9.46 48.15-11.83c28.54-2.32 66.7-3.12 105.73-2.49z" />
					<path id="&lt;Path&gt;" class="s14" d="m186.28 379.06c42.63 0.69 84.03 3.1 112.59 6.92c23.45 3.15 38.15 7.25 38.08 12.09c-0.08 5.2-18.69 9.04-47.3 11.42c-28.01 2.31-65.49 3.22-103.9 2.71c-42.73-0.57-84.22-2.87-112.78-6.71c-23.35-3.15-37.98-7.31-37.9-12.34c0.08-5.41 18.7-9.3 47.32-11.64c28.02-2.28 65.5-3.08 103.91-2.45z" />
					<path id="&lt;Path&gt;" class="s15" d="m186.27 379.33c41.95 0.68 82.59 3.05 110.61 6.81c23.05 3.1 37.48 7.14 37.4 11.89c-0.08 5.11-18.33 8.9-46.46 11.23c-27.49 2.27-64.28 3.17-102.08 2.67c-42.05-0.56-82.77-2.83-110.81-6.6c-22.96-3.1-37.31-7.2-37.24-12.14c0.08-5.32 18.34-9.15 46.48-11.46c27.5-2.24 64.29-3.03 102.09-2.41z" />
					<path id="&lt;Path&gt;" class="s16" d="m186.27 379.6c41.28 0.67 81.15 3.01 108.64 6.7c22.65 3.06 36.8 7.03 36.73 11.7c-0.08 5.02-17.97 8.75-45.63 11.05c-26.97 2.24-63.08 3.13-100.26 2.63c-41.37-0.56-81.33-2.79-108.83-6.49c-22.56-3.05-36.64-7.09-36.57-11.93c0.08-5.22 17.99-9 45.65-11.27c26.97-2.2 63.09-2.98 100.27-2.38z" />
					<path id="&lt;Path&gt;" class="s17" d="m186.27 379.86c40.6 0.66 79.71 2.96 106.67 6.59c22.26 3.01 36.13 6.92 36.06 11.5c-0.08 4.93-17.62 8.6-44.79 10.87c-26.45 2.2-61.87 3.07-98.45 2.58c-40.69-0.55-79.89-2.75-106.85-6.38c-22.17-3-35.97-6.97-35.9-11.73c0.08-5.13 17.63-8.84 44.81-11.08c26.45-2.17 61.88-2.94 98.45-2.34z" />
					<path id="&lt;Path&gt;" class="s18" d="m186.26 380.13c39.92 0.65 78.27 2.91 104.69 6.47c21.86 2.96 35.46 6.81 35.38 11.3c-0.07 4.84-17.26 8.46-43.95 10.69c-25.93 2.16-60.67 3.02-96.63 2.54c-40.01-0.54-78.45-2.71-104.88-6.28c-21.78-2.96-35.3-6.86-35.23-11.53c0.08-5.03 17.27-8.69 43.98-10.9c25.93-2.13 60.68-2.89 96.63-2.3z" />
					<path id="&lt;Path&gt;" class="s19" d="m186.26 380.4c39.25 0.64 76.83 2.86 102.72 6.36c21.47 2.91 34.78 6.7 34.71 11.11c-0.07 4.75-16.9 8.31-43.12 10.51c-25.41 2.12-59.46 2.97-94.81 2.49c-39.34-0.53-77-2.66-102.9-6.17c-21.38-2.91-34.63-6.75-34.56-11.33c0.08-4.94 16.92-8.54 43.14-10.71c25.41-2.09 59.47-2.84 94.81-2.27z" />
					<path id="&lt;Path&gt;" class="s20" d="m186.25 380.66c38.57 0.63 75.39 2.82 100.75 6.25c21.07 2.87 34.11 6.59 34.04 10.91c-0.07 4.66-16.54 8.17-42.28 10.33c-24.88 2.08-58.26 2.92-92.99 2.45c-38.66-0.53-75.56-2.62-100.92-6.06c-20.99-2.86-33.96-6.64-33.89-11.12c0.07-4.84 16.56-8.38 42.31-10.52c24.89-2.05 58.27-2.8 93-2.23z" />
					<path id="&lt;Path&gt;" class="s21" d="m186.25 380.93c37.89 0.61 73.96 2.77 98.77 6.13c20.67 2.82 33.43 6.47 33.37 10.71c-0.07 4.57-16.19 8.02-41.45 10.16c-24.36 2.04-57.06 2.87-91.17 2.41c-37.98-0.52-74.12-2.58-98.95-5.96c-20.6-2.82-33.29-6.52-33.22-10.92c0.07-4.74 16.2-8.23 41.47-10.34c24.37-2.02 57.06-2.75 91.18-2.19z" />
					<path id="&lt;Path&gt;" class="s22" d="m186.25 381.19c37.22 0.6 72.52 2.72 96.8 6.02c20.28 2.77 32.76 6.36 32.69 10.52c-0.07 4.48-15.83 7.87-40.61 9.97c-23.84 2-55.85 2.82-89.35 2.36c-37.3-0.51-72.68-2.54-96.97-5.85c-20.2-2.77-32.62-6.41-32.56-10.72c0.07-4.65 15.85-8.08 40.64-10.15c23.85-1.98 55.86-2.7 89.36-2.16z" />
					<path id="&lt;Path&gt;" class="s23" d="m186.24 381.46c36.54 0.59 71.08 2.67 94.83 5.91c19.88 2.72 32.08 6.25 32.02 10.32c-0.06 4.39-15.47 7.73-39.77 9.79c-23.32 1.97-54.65 2.77-87.53 2.32c-36.62-0.5-71.23-2.5-94.99-5.74c-19.81-2.72-31.95-6.3-31.89-10.51c0.07-4.55 15.49-7.92 39.8-9.97c23.32-1.94 54.66-2.66 87.54-2.12z" />
					<path id="&lt;Path&gt;" class="s24" d="m186.24 381.73c35.86 0.58 69.64 2.62 92.85 5.79c19.49 2.68 31.41 6.14 31.35 10.12c-0.06 4.3-15.11 7.58-38.94 9.61c-22.8 1.93-53.44 2.72-85.71 2.28c-35.94-0.49-69.79-2.46-93.02-5.63c-19.42-2.67-31.28-6.19-31.22-10.31c0.07-4.46 15.13-7.77 38.97-9.78c22.8-1.9 53.45-2.61 85.72-2.08z" />
					<path id="&lt;Path&gt;" class="s25" d="m186.23 381.99c35.18 0.57 68.2 2.58 90.88 5.68c19.09 2.63 30.73 6.03 30.67 9.93c-0.06 4.21-14.76 7.44-38.1 9.43c-22.28 1.89-52.24 2.67-83.9 2.23c-35.27-0.49-68.35-2.42-91.04-5.53c-19.02-2.63-30.61-6.08-30.55-10.11c0.07-4.36 14.77-7.62 38.13-9.59c22.28-1.87 52.25-2.56 83.9-2.05z" />
					<path id="&lt;Path&gt;" class="s26" d="m186.23 382.26c34.51 0.56 66.76 2.53 88.91 5.57c18.7 2.58 30.06 5.92 30 9.73c-0.06 4.12-14.4 7.29-37.26 9.25c-21.75 1.85-51.03 2.62-82.08 2.19c-34.59-0.48-66.91-2.37-89.06-5.42c-18.63-2.58-29.94-5.96-29.88-9.9c0.06-4.26 14.42-7.47 37.3-9.41c21.76-1.83 51.04-2.52 82.08-2.01z" />
					<path id="&lt;Path&gt;" class="s27" d="m186.22 382.53c33.83 0.55 65.32 2.48 86.93 5.45c18.3 2.54 29.38 5.81 29.33 9.54c-0.06 4.03-14.04 7.14-36.43 9.07c-21.23 1.81-49.83 2.57-80.26 2.15c-33.91-0.47-65.46-2.33-87.09-5.31c-18.24-2.53-29.27-5.85-29.21-9.7c0.06-4.17 14.06-7.31 36.46-9.22c21.24-1.79 49.84-2.47 80.26-1.97z" />
					<path id="&lt;Path&gt;" class="s28" d="m186.22 382.79c33.15 0.54 63.88 2.43 84.96 5.34c17.9 2.49 28.71 5.7 28.66 9.34c-0.05 3.94-13.68 7-35.59 8.89c-20.71 1.77-48.62 2.52-78.44 2.1c-33.23-0.46-64.02-2.29-85.11-5.21c-17.84-2.49-28.6-5.74-28.55-9.5c0.06-4.07 13.7-7.16 35.63-9.03c20.72-1.75 48.63-2.42 78.45-1.94z" />
					<path id="&lt;Path&gt;" class="s29" d="m186.22 383.06c32.48 0.53 62.44 2.38 82.99 5.22c17.51 2.44 28.03 5.59 27.98 9.14c-0.05 3.85-13.33 6.85-34.75 8.71c-20.19 1.74-47.42 2.47-76.62 2.06c-32.55-0.46-62.58-2.25-83.13-5.1c-17.45-2.44-27.93-5.62-27.88-9.29c0.06-3.98 13.35-7.01 34.79-8.85c20.2-1.71 47.43-2.38 76.63-1.9z" />
					<path id="&lt;Path&gt;" class="s30" d="m186.21 383.32c31.8 0.51 61 2.34 81.01 5.11c17.11 2.39 27.36 5.48 27.31 8.95c-0.05 3.76-12.97 6.71-33.92 8.53c-19.67 1.7-46.21 2.42-74.8 2.02c-31.87-0.45-61.14-2.21-81.16-4.99c-17.06-2.39-27.26-5.51-27.21-9.09c0.06-3.88 12.99-6.85 33.96-8.66c19.67-1.68 46.22-2.33 74.81-1.86z" />
					<path id="&lt;Path&gt;" class="s31" d="m186.21 383.59c31.12 0.5 59.56 2.29 79.04 5c16.71 2.35 26.68 5.37 26.64 8.75c-0.05 3.67-12.61 6.56-33.08 8.35c-19.15 1.66-45.01 2.37-72.98 1.97c-31.2-0.44-59.7-2.17-79.18-4.88c-16.67-2.34-26.59-5.4-26.54-8.89c0.06-3.78 12.63-6.7 33.12-8.48c19.15-1.64 45.02-2.28 72.99-1.83z" />
					<path id="&lt;Path&gt;" class="s32" d="m186.2 383.86c30.45 0.49 58.12 2.24 77.07 4.88c16.32 2.3 26.01 5.25 25.96 8.55c-0.05 3.58-12.25 6.41-32.25 8.17c-18.63 1.62-43.8 2.32-71.16 1.93c-30.52-0.43-58.25-2.13-77.2-4.78c-16.27-2.3-25.92-5.29-25.87-8.69c0.06-3.69 12.28-6.55 32.29-8.29c18.63-1.6 43.82-2.24 71.17-1.79z" />
					<path id="&lt;Path&gt;" class="s33" d="m186.2 384.12c29.77 0.48 56.68 2.19 75.09 4.77c15.92 2.25 25.33 5.14 25.29 8.36c-0.04 3.49-11.9 6.27-31.41 7.99c-18.1 1.58-42.6 2.27-69.34 1.89c-29.84-0.42-56.81-2.08-75.23-4.67c-15.88-2.25-25.25-5.17-25.2-8.48c0.05-3.59 11.92-6.4 31.45-8.1c18.11-1.56 42.61-2.19 69.35-1.75z" />
					<path id="&lt;Path&gt;" class="s34" d="m186.2 384.39c29.09 0.47 55.25 2.15 73.12 4.66c15.53 2.2 24.66 5.03 24.62 8.16c-0.04 3.4-11.54 6.12-30.57 7.81c-17.58 1.54-41.4 2.21-67.53 1.84c-29.16-0.42-55.37-2.04-73.25-4.56c-15.49-2.2-24.58-5.06-24.53-8.28c0.05-3.5 11.56-6.24 30.62-7.92c17.59-1.53 41.41-2.14 67.53-1.72z" />
					<path id="&lt;Path&gt;" class="s35" d="m186.19 384.66c28.42 0.46 53.81 2.1 71.15 4.54c15.13 2.16 23.98 4.92 23.95 7.96c-0.04 3.31-11.18 5.98-29.74 7.63c-17.06 1.51-40.19 2.17-65.71 1.8c-28.48-0.41-53.92-2-71.27-4.46c-15.09-2.16-23.91-4.95-23.87-8.08c0.05-3.4 11.21-6.09 29.78-7.73c17.07-1.49 40.2-2.1 65.71-1.68z" />
					<path id="&lt;Path&gt;" class="s36" d="m186.19 384.92c27.74 0.45 52.37 2.05 69.17 4.43c14.73 2.11 23.31 4.81 23.27 7.77c-0.04 3.22-10.82 5.83-28.9 7.45c-16.54 1.47-38.99 2.11-63.89 1.76c-27.81-0.4-52.48-1.96-69.3-4.35c-14.7-2.11-23.24-4.84-23.2-7.88c0.05-3.3 10.85-5.94 28.94-7.54c16.55-1.45 39-2.05 63.9-1.64z" />
					<path id="&lt;Path&gt;" class="s37" d="m186.18 385.19c27.06 0.44 50.93 2 67.2 4.32c14.34 2.06 22.63 4.7 22.6 7.57c-0.04 3.13-10.46 5.68-28.06 7.27c-16.02 1.43-37.78 2.06-62.07 1.71c-27.13-0.39-51.04-1.92-67.32-4.24c-14.31-2.06-22.57-4.73-22.53-7.67c0.05-3.21 10.49-5.78 28.11-7.36c16.03-1.41 37.79-2 62.08-1.61z" />
					<path id="&lt;Path&gt;" class="s38" d="m186.18 385.45c26.38 0.43 49.49 1.95 65.23 4.2c13.94 2.01 21.96 4.59 21.93 7.38c-0.04 3.04-10.11 5.54-27.23 7.09c-15.5 1.39-36.58 2.01-60.25 1.67c-26.45-0.39-49.6-1.88-65.34-4.13c-13.91-2.01-21.9-4.61-21.86-7.47c0.05-3.11 10.14-5.63 27.27-7.17c15.5-1.38 36.59-1.96 60.26-1.57z" />
					<path id="&lt;Path&gt;" class="s39" d="m186.18 385.72c25.71 0.41 48.05 1.91 63.25 4.09c13.55 1.97 21.29 4.48 21.25 7.18c-0.03 2.95-9.75 5.39-26.39 6.91c-14.97 1.35-35.37 1.96-58.43 1.63c-25.77-0.38-48.16-1.84-63.37-4.03c-13.52-1.97-21.23-4.5-21.19-7.27c0.04-3.02 9.78-5.48 26.44-6.99c14.98-1.34 35.38-1.91 58.44-1.53z" />
					<path id="&lt;Path&gt;" class="s40" d="m186.17 385.99c25.03 0.4 46.61 1.86 61.28 3.98c13.15 1.92 20.61 4.37 20.58 6.98c-0.03 2.86-9.39 5.25-25.56 6.73c-14.45 1.31-34.17 1.91-56.61 1.58c-25.09-0.37-46.71-1.79-61.39-3.92c-13.13-1.92-20.56-4.39-20.52-7.06c0.04-2.92 9.42-5.32 25.6-6.8c14.46-1.3 34.18-1.86 56.62-1.49z" />
					<path id="&lt;Path&gt;" class="s41" d="m186.17 386.25c24.35 0.39 45.17 1.81 59.3 3.86c12.75 1.87 19.94 4.25 19.91 6.79c-0.03 2.77-9.04 5.1-24.72 6.55c-13.93 1.28-32.96 1.86-54.79 1.54c-24.41-0.36-45.27-1.75-59.41-3.81c-12.73-1.87-19.89-4.28-19.85-6.86c0.04-2.83 9.07-5.17 24.77-6.61c13.94-1.26 32.98-1.82 54.8-1.46z" />
					<path id="&lt;Path&gt;" class="s42" d="m186.16 386.52c23.68 0.38 43.73 1.76 57.33 3.75c12.36 1.83 19.26 4.14 19.23 6.59c-0.03 2.68-8.68 4.95-23.88 6.37c-13.41 1.24-31.76 1.81-52.97 1.5c-23.74-0.35-43.83-1.71-57.44-3.7c-12.34-1.83-19.22-4.16-19.19-6.66c0.04-2.73 8.71-5.02 23.93-6.43c13.42-1.23 31.77-1.77 52.98-1.42z" />
					<path id="&lt;Path&gt;" class="s43" d="m186.16 386.79c23 0.37 42.29 1.71 55.36 3.64c11.96 1.78 18.59 4.03 18.56 6.39c-0.03 2.59-8.32 4.81-23.05 6.19c-12.89 1.2-30.55 1.76-51.16 1.45c-23.06-0.35-42.39-1.67-55.46-3.6c-11.95-1.78-18.55-4.05-18.52-6.45c0.04-2.63 8.35-4.87 23.1-6.24c12.9-1.19 30.57-1.72 51.16-1.38z" />
					<path id="&lt;Path&gt;" class="s44" d="m186.16 387.05c22.32 0.36 40.85 1.67 53.39 3.52c11.57 1.73 17.91 3.92 17.89 6.2c-0.02 2.5-7.96 4.66-22.21 6.01c-12.37 1.16-29.35 1.71-49.34 1.41c-22.38-0.34-40.94-1.63-53.49-3.49c-11.55-1.73-17.88-3.94-17.85-6.25c0.04-2.54 8-4.71 22.26-6.05c12.38-1.15 29.36-1.68 49.34-1.35z" />
					<path id="&lt;Path&gt;" class="s45" d="m186.15 387.32c21.65 0.35 39.41 1.62 51.41 3.41c11.17 1.68 17.24 3.81 17.22 6c-0.02 2.41-7.6 4.52-21.37 5.83c-11.84 1.12-28.14 1.66-47.52 1.37c-21.7-0.33-39.5-1.59-51.51-3.38c-11.16-1.68-17.21-3.83-17.18-6.05c0.03-2.44 7.64-4.56 21.43-5.87c11.85-1.11 28.16-1.63 47.53-1.31z" />
					<path id="&lt;Path&gt;" class="s46" d="m186.15 387.58c20.97 0.34 37.97 1.57 49.44 3.3c10.77 1.64 16.56 3.7 16.54 5.8c-0.02 2.32-7.25 4.37-20.54 5.65c-11.32 1.08-26.94 1.61-45.7 1.32c-21.02-0.32-38.06-1.55-49.53-3.28c-10.77-1.64-16.54-3.71-16.51-5.84c0.03-2.35 7.28-4.41 20.59-5.68c11.33-1.08 26.95-1.58 45.71-1.27z" />
					<path id="&lt;Path&gt;" class="s47" d="m186.14 387.85c20.29 0.33 36.53 1.52 47.47 3.18c10.38 1.59 15.89 3.59 15.87 5.61c-0.02 2.23-6.89 4.22-19.7 5.47c-10.8 1.04-25.73 1.56-43.88 1.28c-20.34-0.31-36.62-1.5-47.55-3.17c-10.37-1.59-15.87-3.6-15.84-5.64c0.03-2.25 6.92-4.25 19.76-5.5c10.81-1.04 25.75-1.54 43.89-1.24z" />
					<path id="&lt;Path&gt;" class="s48" d="m186.14 388.12c19.62 0.31 35.1 1.47 45.49 3.07c9.98 1.54 15.21 3.48 15.2 5.41c-0.02 2.14-6.53 4.08-18.86 5.29c-10.28 1.01-24.53 1.51-42.06 1.23c-19.67-0.31-35.17-1.46-45.58-3.06c-9.98-1.54-15.2-3.49-15.18-5.44c0.03-2.15 6.57-4.1 18.92-5.31c10.29-1 24.54-1.49 42.07-1.2z" />
					<path id="&lt;Path&gt;" class="s49" d="m186.14 388.38c18.94 0.3 33.66 1.43 43.52 2.96c9.59 1.49 14.54 3.37 14.52 5.21c-0.01 2.04-6.17 3.93-18.03 5.11c-9.76 0.97-23.33 1.46-40.24 1.19c-18.99-0.3-33.73-1.42-43.6-2.95c-9.59-1.5-14.53-3.38-14.51-5.24c0.03-2.06 6.21-3.95 18.09-5.12c9.77-0.96 23.34-1.44 40.25-1.16z" />
					<path id="&lt;Path&gt;" class="s50" d="m186.13 388.65c18.26 0.29 32.22 1.38 41.54 2.84c9.19 1.45 13.86 3.26 13.85 5.02c-0.01 1.95-5.82 3.79-17.19 4.93c-9.24 0.93-22.12 1.41-38.42 1.15c-18.31-0.29-32.29-1.38-41.63-2.85c-9.2-1.45-13.86-3.26-13.84-5.03c0.03-1.96 5.85-3.8 17.25-4.94c9.25-0.92 22.14-1.4 38.43-1.13z" />
					<path id="&lt;Path&gt;" class="s51" d="m185.92 402.33c-17.63-0.28-30.85-1.34-39.65-2.74c-8.8-1.4-13.19-3.15-13.17-4.83c0.04-3.36 17.73-6.42 53.03-5.84c17.58 0.28 30.78 1.33 39.57 2.73c8.79 1.4 13.19 3.15 13.18 4.82c-0.02 3.35-17.66 6.42-52.96 5.86z" />
				</g>
				<g id="&lt;Group&gt;">
					<g id="&lt;Group&gt;">
						<g id="&lt;Group&gt;">
							<path id="&lt;Path&gt;" class="s52" d="m187.4 340.51c-7.19 0-14.48-0.5-21.66-1.48c-86.35-11.81-147.51-91.66-136.32-177.99c4.92-38.06 23.49-72.85 52.3-97.97c28.54-24.88 65.07-38.59 102.87-38.59c7.19 0 14.47 0.49 21.65 1.48c86.36 11.84 147.51 91.68 136.34 177.99c-4.92 38.07-23.5 72.87-52.29 97.98c-28.54 24.88-65.09 38.59-102.89 38.59z" />
						</g>
						<g id="&lt;Group&gt;">
							<path id="&lt;Path&gt;" class="s53" d="m176.73 304.39c-6.06 0-12.21-0.42-18.27-1.25c-72.86-9.97-124.47-77.35-115.04-150.19c4.15-32.12 19.82-61.48 44.13-82.67c24.09-20.99 54.92-32.56 86.82-32.56c6.06 0 12.21 0.42 18.26 1.24c72.88 9.98 124.49 77.36 115.05 150.19c-4.15 32.12-19.83 61.49-44.13 82.67c-24.09 21-54.91 32.56-86.81 32.56z" />
						</g>
					</g>
					<g id="&lt;Group&gt;">
						<path id="&lt;Path&gt;" class="s54" d="m350.15 104.34l-86.91 168.92h-70.17l-0.94-12.13h60.79l75.23-146.22l22-10.58z" />
						<path id="&lt;Path&gt;" class="s55" d="m252.47 157.8l-8.88 3.3h-91.93l-5.31-3.3h106.11z" />
						<path id="&lt;Path&gt;" class="s56" d="m181.23 103.66h-60.79l-76 147.75l-21.85 10.63l87.72-170.55h70.16l0.75 12.17z" />
						<path id="&lt;Path&gt;" class="s57" d="m263.24 273.26h-70.17l34.12-66.3h-106.14l-56.72 110.54c144.6 130.47 372.58-31.19 285.81-213.16l-86.91 168.92z" />
						<path id="&lt;Path&gt;" class="s58" d="m121.06 206.95l8.68-3.27h91.95l5.51 3.27h-106.14z" />
						<path id="&lt;Path&gt;" class="s59" d="m22.59 262.04l87.72-170.55h70.16l-34.12 66.31h106.11l56.39-109.22c-144.92-132.99-375.33 31.02-286.27 213.47z" />
						<path id="&lt;Path&gt;" class="s60" d="m183.69 355.8c-39.3 0-76.52-13.96-108.08-40.47l50.97-99.34h85.81l-34.12 66.3h90.48l80.59-156.64c18.48 50.38 13.59 101.56-14.35 145.84c-32.31 51.2-91.69 84.3-151.28 84.31c-0.01 0-0.02 0-0.03 0z" />
						<path id="&lt;Path&gt;" class="s61" d="m23.28 240.95c-19.12-50.51-14.6-101.98 13.31-146.66c32.29-51.69 91.89-85.1 151.83-85.1c39.8 0 77.41 14.32 109.19 41.49l-50.64 98.09h-85.81l34.12-66.31h-90.48l-81.52 158.48z" />
					</g>
				</g>
			</g>
		</g>
	</g>
</svg>